<?xml version="1.0" encoding="utf-8"?>
<!-- Generator: Adobe Illustrator 18.1.1, SVG Export Plug-In . SVG Version: 6.00 Build 0)  -->
<svg version="1.1" id="Layer_1" xmlns="http://www.w3.org/2000/svg" xmlns:xlink="http://www.w3.org/1999/xlink" x="0px" y="0px"
	 viewBox="0 0 24.4 22.9" enable-background="new 0 0 24.4 22.9" xml:space="preserve">
<path fill="#FFFFFF" d="M19.7,0c-1.5,0-2.8,0.7-3.7,1.8C15,0.7,13.7,0,12.2,0c-1.5,0-2.8,0.7-3.7,1.8C7.6,0.7,6.2,0,4.8,0
	C2.1,0,0,2.1,0,4.7c0,2.5,1.9,4.5,4.3,4.7v13c0,0.2,0.2,0.4,0.4,0.4h14.9c0.2,0,0.4-0.2,0.4-0.4v-13c2.4-0.2,4.3-2.2,4.3-4.7
	C24.4,2.1,22.3,0,19.7,0"/>
</svg>
