<?xml version="1.0" encoding="utf-8"?>
<!-- Generator: Adobe Illustrator 18.1.1, SVG Export Plug-In . SVG Version: 6.00 Build 0)  -->
<svg version="1.1" id="Layer_1" xmlns="http://www.w3.org/2000/svg" xmlns:xlink="http://www.w3.org/1999/xlink" x="0px" y="0px"
	 viewBox="0 0 21.3 21.3" enable-background="new 0 0 21.3 21.3" xml:space="preserve">
<g>
	<path fill="#FFFFFF" d="M21.3,10.7c0,5.9-4.8,10.7-10.7,10.7C4.8,21.3,0,16.5,0,10.7C0,4.8,4.8,0,10.7,0C16.5,0,21.3,4.8,21.3,10.7
		"/>
	<path fill="#183059" d="M9.6,4.5v5.2H6.3c-0.7,0-1.3,0.6-1.3,1.3c0,0.7,0.6,1.3,1.3,1.3h4.6c0.7,0,1.3-0.6,1.3-1.3V4.5
		c0-0.7-0.6-1.3-1.3-1.3C10.2,3.2,9.6,3.8,9.6,4.5"/>
</g>
</svg>
