<?xml version="1.0" encoding="utf-8"?>
<!-- Generator: Adobe Illustrator 18.1.1, SVG Export Plug-In . SVG Version: 6.00 Build 0)  -->
<svg version="1.1" id="Layer_1" xmlns="http://www.w3.org/2000/svg" xmlns:xlink="http://www.w3.org/1999/xlink" x="0px" y="0px"
	 viewBox="0 0 35.9 21.1" enable-background="new 0 0 35.9 21.1" xml:space="preserve">
<g>
	<path fill="#FFFFFF" d="M35,16.8c-4.5-3.6-10.1-5.5-15.8-5.7v-2c2-0.5,3.4-2.3,3.4-4.5c0-2.6-2.1-4.6-4.6-4.6
		c-2.6,0-4.6,2.1-4.6,4.6c0,0.7,0.5,1.2,1.2,1.2c0.7,0,1.2-0.5,1.2-1.2c0-1.2,1-2.2,2.2-2.2c1.2,0,2.2,1,2.2,2.2
		c0,1.2-1,2.2-2.2,2.2c-0.7,0-1.2,0.5-1.2,1.2v3C11,11.3,5.4,13.2,0.9,16.8c-1,0.8-1.2,2.4-0.4,3.4c0.8,1,2.4,1.2,3.4,0.4
		c7.7-6.2,20.3-6.2,28.1,0c0.4,0.4,1,0.5,1.5,0.5c0.7,0,1.4-0.3,1.9-0.9C36.2,19.2,36,17.6,35,16.8L35,16.8z M35,16.8"/>
</g>
<g>
	<path fill="#FFFFFF" d="M35,16.8c-4.5-3.6-10.1-5.5-15.8-5.7v-2c2-0.5,3.4-2.3,3.4-4.5c0-2.6-2.1-4.6-4.6-4.6
		c-2.6,0-4.6,2.1-4.6,4.6c0,0.7,0.5,1.2,1.2,1.2c0.7,0,1.2-0.5,1.2-1.2c0-1.2,1-2.2,2.2-2.2c1.2,0,2.2,1,2.2,2.2
		c0,1.2-1,2.2-2.2,2.2c-0.7,0-1.2,0.5-1.2,1.2v3C11,11.3,5.4,13.2,0.9,16.8c-1,0.8-1.2,2.4-0.4,3.4c0.8,1,2.4,1.2,3.4,0.4
		c7.7-6.2,20.3-6.2,28.1,0c0.4,0.4,1,0.5,1.5,0.5c0.7,0,1.4-0.3,1.9-0.9C36.2,19.2,36,17.6,35,16.8L35,16.8z M35,16.8"/>
</g>
</svg>
