<?xml version="1.0" encoding="utf-8"?>
<!-- Generator: Adobe Illustrator 18.1.1, SVG Export Plug-In . SVG Version: 6.00 Build 0)  -->
<svg version="1.1" id="Layer_1" xmlns="http://www.w3.org/2000/svg" xmlns:xlink="http://www.w3.org/1999/xlink" x="0px" y="0px"
	 viewBox="0 0 36.1 36.1" enable-background="new 0 0 36.1 36.1" xml:space="preserve">
<g>
	<path fill="#FFFFFF" d="M18.1,9c-5,0-9,4.1-9,9.1c0,5,4.1,9,9,9c5,0,9.1-4.1,9.1-9C27.1,13.1,23.1,9,18.1,9L18.1,9z M18.1,9"/>
	<path fill="#FFFFFF" d="M18.1,6.4c-1,0-1.8-0.8-1.8-1.8V1.8c0-1,0.8-1.8,1.8-1.8c1,0,1.8,0.8,1.8,1.8v2.8C19.8,5.6,19,6.4,18.1,6.4
		L18.1,6.4z M18.1,6.4"/>
	<path fill="#FFFFFF" d="M18.1,29.8c-1,0-1.8,0.8-1.8,1.8v2.8c0,1,0.8,1.8,1.8,1.8c1,0,1.8-0.8,1.8-1.8v-2.8
		C19.8,30.6,19,29.8,18.1,29.8L18.1,29.8z M18.1,29.8"/>
	<path fill="#FFFFFF" d="M26.3,9.8c-0.7-0.7-0.7-1.8,0-2.5l2-2c0.7-0.7,1.8-0.7,2.5,0c0.7,0.7,0.7,1.8,0,2.5l-2,2
		C28.1,10.5,27,10.5,26.3,9.8L26.3,9.8z M26.3,9.8"/>
	<path fill="#FFFFFF" d="M9.8,26.3c-0.7-0.7-1.8-0.7-2.5,0l-2,2c-0.7,0.7-0.7,1.8,0,2.5c0.7,0.7,1.8,0.7,2.5,0l2-2
		C10.5,28.2,10.5,27,9.8,26.3L9.8,26.3z M9.8,26.3"/>
	<path fill="#FFFFFF" d="M29.8,18.1c0-1,0.8-1.8,1.8-1.8h2.8c1,0,1.8,0.8,1.8,1.8c0,1-0.8,1.8-1.8,1.8h-2.8
		C30.6,19.8,29.8,19,29.8,18.1L29.8,18.1z M29.8,18.1"/>
	<path fill="#FFFFFF" d="M6.4,18.1c0-1-0.8-1.8-1.8-1.8H1.8c-1,0-1.8,0.8-1.8,1.8c0,1,0.8,1.8,1.8,1.8h2.8C5.6,19.8,6.4,19,6.4,18.1
		L6.4,18.1z M6.4,18.1"/>
	<path fill="#FFFFFF" d="M26.3,26.3c0.7-0.7,1.8-0.7,2.5,0l2,2c0.7,0.7,0.7,1.8,0,2.5c-0.7,0.7-1.8,0.7-2.5,0l-2-2
		C25.7,28.2,25.7,27,26.3,26.3L26.3,26.3z M26.3,26.3"/>
	<path fill="#FFFFFF" d="M9.8,9.8c0.7-0.7,0.7-1.8,0-2.5l-2-2C7.1,4.6,6,4.6,5.3,5.3C4.6,6,4.6,7.1,5.3,7.8l2,2
		C8,10.5,9.1,10.5,9.8,9.8L9.8,9.8z M9.8,9.8"/>
</g>
</svg>
