<?xml version="1.0" encoding="utf-8"?>
<!-- Generator: Adobe Illustrator 18.1.1, SVG Export Plug-In . SVG Version: 6.00 Build 0)  -->
<svg version="1.1" id="Layer_1" xmlns="http://www.w3.org/2000/svg" xmlns:xlink="http://www.w3.org/1999/xlink" x="0px" y="0px"
	 viewBox="0 0 22.4 22.3" enable-background="new 0 0 22.4 22.3" xml:space="preserve">
<path fill="#FFFFFF" d="M5.4,5.2C6.8,5.2,8,4.1,8,2.6S6.8,0,5.4,0C3.9,0,2.8,1.2,2.8,2.6S3.9,5.2,5.4,5.2"/>
<path fill="#FFFFFF" d="M10.7,13.1L9.2,6.5C9.1,6.1,8.7,5.9,8.3,5.9H2.4C2,5.9,1.7,6.1,1.6,6.5L0,13.1c-0.1,0.2,0,0.4,0.1,0.5
	c0.1,0.1,0.3,0.2,0.5,0.2h0.5c0.4,0,0.8-0.3,0.9-0.6l0.6-2.8v10.6c0,0.7,0.5,1.2,1.2,1.2h0.1c0.7,0,1.2-0.5,1.2-1.2v-6.3h0.5v6.3
	c0,0.7,0.5,1.2,1.2,1.2h0.1c0.7,0,1.2-0.5,1.2-1.2V10.4l0.6,2.8c0.1,0.4,0.5,0.6,0.9,0.6h0.5c0.2,0,0.4-0.1,0.5-0.2
	C10.8,13.5,10.8,13.3,10.7,13.1"/>
<path fill="#FFFFFF" d="M13.5,13.5c0.7,0,1.4-0.6,1.4-1.4c0-0.7-0.6-1.4-1.4-1.4c-0.7,0-1.4,0.6-1.4,1.4
	C12.2,12.9,12.8,13.5,13.5,13.5"/>
<path fill="#FFFFFF" d="M16.3,17.5l-0.8-3.4c-0.1-0.2-0.3-0.3-0.4-0.3H12c-0.2,0-0.4,0.1-0.4,0.3l-0.8,3.4c0,0.1,0,0.2,0,0.3
	c0.1,0.1,0.1,0.1,0.3,0.1h0.3c0.2,0,0.4-0.1,0.4-0.3l0.3-1.4v5.5c0,0.3,0.3,0.6,0.6,0.6h0c0.3,0,0.6-0.3,0.6-0.6v-3.3h0.3v3.3
	c0,0.3,0.3,0.6,0.6,0.6h0c0.3,0,0.6-0.3,0.6-0.6v-5.5l0.3,1.4c0.1,0.2,0.3,0.3,0.4,0.3H16c0.1,0,0.2,0,0.3-0.1
	C16.3,17.7,16.3,17.6,16.3,17.5"/>
<path fill="#FFFFFF" d="M19.6,13.5c0.7,0,1.4-0.6,1.4-1.4c0-0.7-0.6-1.4-1.4-1.4c-0.7,0-1.4,0.6-1.4,1.4
	C18.3,12.9,18.9,13.5,19.6,13.5"/>
<path fill="#FFFFFF" d="M22.4,17.5l-0.8-3.4c-0.1-0.2-0.3-0.3-0.4-0.3h-3.1c-0.2,0-0.4,0.1-0.4,0.3l-0.8,3.4c0,0.1,0,0.2,0,0.3
	c0.1,0.1,0.1,0.1,0.3,0.1h0.3c0.2,0,0.4-0.1,0.4-0.3l0.3-1.4v5.5c0,0.3,0.3,0.6,0.6,0.6h0c0.3,0,0.6-0.3,0.6-0.6v-3.3h0.3v3.3
	c0,0.3,0.3,0.6,0.6,0.6h0c0.3,0,0.6-0.3,0.6-0.6v-5.5l0.3,1.4c0.1,0.2,0.3,0.3,0.4,0.3h0.3c0.1,0,0.2,0,0.3-0.1
	C22.4,17.7,22.4,17.6,22.4,17.5"/>
</svg>
