<?xml version="1.0" encoding="utf-8"?>
<!-- Generator: Adobe Illustrator 18.1.1, SVG Export Plug-In . SVG Version: 6.00 Build 0)  -->
<svg version="1.1" id="Layer_1" xmlns="http://www.w3.org/2000/svg" xmlns:xlink="http://www.w3.org/1999/xlink" x="0px" y="0px"
	 viewBox="0 0 18.7 24.8" enable-background="new 0 0 18.7 24.8" xml:space="preserve">
<g>
	<path fill="#FFFFFF" d="M1.5,7.8l1.9,14.7c0,0,2,0.8,5.5,0.8c3.4,0,6.5-0.8,6.5-0.8l1.8-14c-0.6,0-1.3,0.1-1.9,0
		C11.1,8.5,6,7.7,1.5,7.8"/>
	<path fill="#FFFFFF" d="M1.4,0C1,0,0.6,0.2,0.4,0.5C0.1,0.7,0,1.1,0,1.5l2.2,21.6l0.3,0.3c0.3,0.3,1.9,1.5,6.8,1.5
		c4.9,0,6.5-1.2,6.8-1.5l0.3-0.3l2.2-21.6c0-0.4-0.1-0.8-0.4-1.1c-0.3-0.3-0.6-0.5-1-0.5H1.4z M14.5,22c-0.6,0.3-2.1,0.8-5.2,0.8
		c-3.1,0-4.6-0.5-5.2-0.8L2.3,3.6c0-0.4,0.1-0.8,0.3-1.1C2.9,2.2,3.3,2,3.7,2h11.4c0.4,0,0.8,0.2,1,0.5c0.3,0.3,0.4,0.7,0.3,1.1
		L14.5,22z"/>
</g>
</svg>
