<?xml version="1.0" encoding="utf-8"?>
<!-- Generator: Adobe Illustrator 18.1.1, SVG Export Plug-In . SVG Version: 6.00 Build 0)  -->
<svg version="1.1" id="Layer_1" xmlns="http://www.w3.org/2000/svg" xmlns:xlink="http://www.w3.org/1999/xlink" x="0px" y="0px"
	 viewBox="0 0 23.2 16.7" enable-background="new 0 0 23.2 16.7" xml:space="preserve">
<g>
	<path fill="#FFFFFF" d="M0,15.7c0,0.5,0.6,0.9,1.3,0.9l20.6,0c0.7,0,1.2-0.6,1.2-1.2V8.7c0-0.5-0.2-1.2-0.4-1.7l-1.9-4.3
		c-0.2-0.5-0.9-1-1.5-1L7.2,0L7.1,0C6.2,0,5.5,0.7,5.5,1.6v0.5c0,0.9,0.7,1.6,1.6,1.6l10.7,1.7l0.1,0c0.2,0,0.5,0.2,0.6,0.4L19,7.3
		c0,0,0,0.1,0,0.1c0,0,0,0-0.1,0H7.8C3.5,7.4,0,10.9,0,15.2C0,15.4,0,15.5,0,15.7"/>
	<path fill="#183059" d="M16,12c0,0.8-0.6,1.4-1.4,1.4c-0.8,0-1.4-0.6-1.4-1.4c0-0.8,0.6-1.4,1.4-1.4C15.4,10.6,16,11.2,16,12"/>
	<path fill="#183059" d="M11.9,12c0,0.8-0.6,1.4-1.4,1.4c-0.8,0-1.4-0.6-1.4-1.4c0-0.8,0.6-1.4,1.4-1.4C11.3,10.6,11.9,11.2,11.9,12
		"/>
</g>
</svg>
