<?xml version="1.0" encoding="utf-8"?>
<!-- Generator: Adobe Illustrator 18.1.1, SVG Export Plug-In . SVG Version: 6.00 Build 0)  -->
<svg version="1.1" id="Layer_1" xmlns="http://www.w3.org/2000/svg" xmlns:xlink="http://www.w3.org/1999/xlink" x="0px" y="0px"
	 viewBox="0 0 18.7 24.8" enable-background="new 0 0 18.7 24.8" xml:space="preserve">
<g>
	<path fill="#FFFFFF" d="M1.5,5.7l1.9,16.7c0,0,2,0.9,5.5,0.9c3.4,0,6.5-0.9,6.5-0.9l1.8-15.9c-0.6,0-1.3,0.1-1.9,0.1
		C11.1,6.5,6,5.5,1.5,5.7"/>
	<path fill="#FFFFFF" d="M1.4,0C1,0,0.6,0.2,0.4,0.5C0.1,0.7,0,1.1,0,1.5l2.2,21.6l0.3,0.3c0.3,0.3,1.9,1.5,6.8,1.5s6.5-1.2,6.8-1.5
		l0.3-0.3l2.2-21.6c0-0.4-0.1-0.8-0.4-1.1c-0.3-0.3-0.6-0.5-1-0.5H1.4z M14.5,22c-0.6,0.3-2.1,0.8-5.2,0.8c-3.1,0-4.6-0.5-5.2-0.8
		L2.3,3.6c0-0.4,0.1-0.8,0.3-1.1C2.9,2.2,3.3,2,3.7,2h11.4c0.4,0,0.8,0.2,1,0.5c0.3,0.3,0.4,0.7,0.3,1.1L14.5,22z"/>
	<path fill="#183059" d="M9.3,13.4c-0.1,0.4-0.5,0.6-0.9,0.5l-2.9-0.9C5.1,12.8,4.9,12.4,5,12L6,9.1c0.1-0.4,0.5-0.6,0.9-0.5
		l2.9,0.9c0.4,0.1,0.6,0.5,0.5,0.9L9.3,13.4z"/>
	<path fill="#183059" d="M11.3,18.5c-0.3,0.3-0.7,0.3-1,0l-2.1-2.2c-0.3-0.3-0.3-0.7,0-1l2.2-2.1c0.3-0.3,0.7-0.3,1,0l2.1,2.2
		c0.3,0.3,0.3,0.7,0,1L11.3,18.5z"/>
</g>
</svg>
