<?xml version="1.0" encoding="utf-8"?>
<!-- Generator: Adobe Illustrator 18.1.1, SVG Export Plug-In . SVG Version: 6.00 Build 0)  -->
<svg version="1.1" id="Layer_1" xmlns="http://www.w3.org/2000/svg" xmlns:xlink="http://www.w3.org/1999/xlink" x="0px" y="0px"
	 viewBox="0 0 21.7 21" enable-background="new 0 0 21.7 21" xml:space="preserve">
<g>
	<path fill="#FFFFFF" d="M10.2,18.1c0,1.6-1.3,2.9-2.9,2.9H2.9C1.3,21,0,19.7,0,18.1V2.9C0,1.3,1.3,0,2.9,0h4.4
		c1.6,0,2.9,1.3,2.9,2.9V18.1z"/>
	<rect x="4.2" y="0" fill="#FFFFFF" width="6" height="21"/>
	<path fill="#183059" d="M7.7,12.8L7.7,12.8c-0.5,0-0.9-0.4-0.9-0.9V8.7c0-0.5,0.4-0.9,0.9-0.9c0.5,0,0.9,0.4,0.9,0.9v3.2
		C8.7,12.4,8.2,12.8,7.7,12.8"/>
	<path fill="#FFFFFF" d="M11.5,18.1c0,1.6,1.3,2.9,2.9,2.9h4.4c1.6,0,2.9-1.3,2.9-2.9V2.9c0-1.6-1.3-2.9-2.9-2.9h-4.4
		c-1.6,0-2.9,1.3-2.9,2.9V18.1z"/>
	<rect x="11.5" y="0" fill="#FFFFFF" width="6" height="21"/>
	<path fill="#183059" d="M13.9,12.8L13.9,12.8c0.5,0,0.9-0.4,0.9-0.9V8.7c0-0.5-0.4-0.9-0.9-0.9c-0.5,0-0.9,0.4-0.9,0.9v3.2
		C13,12.4,13.4,12.8,13.9,12.8"/>
</g>
</svg>
