<?xml version="1.0" encoding="utf-8"?>
<!-- Generator: Adobe Illustrator 18.1.1, SVG Export Plug-In . SVG Version: 6.00 Build 0)  -->
<svg version="1.1" id="Layer_1" xmlns="http://www.w3.org/2000/svg" xmlns:xlink="http://www.w3.org/1999/xlink" x="0px" y="0px"
	 viewBox="0 0 21 21" enable-background="new 0 0 21 21" xml:space="preserve">
<g>
	<path fill="#FFFFFF" d="M21,2.9C21,1.3,19.7,0,18.1,0H2.9C1.3,0,0,1.3,0,2.9v15.2C0,19.7,1.3,21,2.9,21h15.2c1.6,0,2.9-1.3,2.9-2.9
		V2.9z M10.7,17.5c-3.5,0-6.3-2.8-6.3-6.3c0-3.5,2.8-6.3,6.3-6.3c3.5,0,6.3,2.8,6.3,6.3C17,14.6,14.2,17.5,10.7,17.5z"/>
	<path fill="#FFFFFF" stroke="#183059" stroke-linecap="round" stroke-linejoin="round" stroke-miterlimit="10" d="M10.7,4.8
		c-3.5,0-6.3,2.8-6.3,6.3c0,3.5,2.8,6.3,6.3,6.3c3.5,0,6.3-2.8,6.3-6.3C17,7.7,14.2,4.8,10.7,4.8z M15.4,11.1c0,2.6-2.1,4.7-4.7,4.7
		c-2.6,0-4.7-2.1-4.7-4.7c0-0.2,0-0.5,0.1-0.7c0.5-0.4,1.5-1,2.8-1c1,0,1.4,0.4,1.9,0.7c0,0,0-0.1,0-0.1c0-0.6,0.5-1,1-1
		c0.6,0,1,0.4,1,1c0,0.4-0.2,0.7-0.5,0.9c0.2,0,0.4,0.1,0.7,0.1c1.4,0,2-0.7,2.2-1.2C15.3,10.2,15.4,10.7,15.4,11.1z"/>
</g>
</svg>
