<?xml version="1.0" encoding="utf-8"?>
<!-- Generator: Adobe Illustrator 18.1.1, SVG Export Plug-In . SVG Version: 6.00 Build 0)  -->
<svg version="1.1" id="Layer_1" xmlns="http://www.w3.org/2000/svg" xmlns:xlink="http://www.w3.org/1999/xlink" x="0px" y="0px"
	 viewBox="0 0 29.4 30.5" enable-background="new 0 0 29.4 30.5" xml:space="preserve">
<g>
	<path fill="#FFFFFF" d="M14.8,11.5c2-7.3-2.2-12-7.8-11.5C4.2,0.3,1.6,3.7,3.2,6.8C4.8,9.7,8,9.4,8.9,12.7
		C9.9,11.5,11.7,10.1,14.8,11.5"/>
	<path fill="#FFFFFF" d="M7.6,16.1c-7.3,2-9.3,7.9-6,12.5c1.5,2.2,5.8,2.8,7.7-0.2c1.7-2.8-0.1-5.4,2.3-7.9
		C10,20.4,7.8,19.5,7.6,16.1"/>
	<path fill="#FFFFFF" d="M15.1,20.1c5.4,5.4,11.5,4.1,13.9-1c1.1-2.4-0.5-6.4-4-6.6c-3.3-0.1-4.6,2.8-8,2
		C17.6,15.9,18,18.1,15.1,20.1"/>
	<path fill="#FFFFFF" d="M15.7,15.9c0,1.8-1.4,3.2-3.2,3.2c-1.8,0-3.2-1.4-3.2-3.2s1.4-3.2,3.2-3.2C14.3,12.7,15.7,14.1,15.7,15.9"
		/>
</g>
</svg>
