<?xml version="1.0" encoding="utf-8"?>
<!-- Generator: Adobe Illustrator 18.1.1, SVG Export Plug-In . SVG Version: 6.00 Build 0)  -->
<svg version="1.1" id="Layer_1" xmlns="http://www.w3.org/2000/svg" xmlns:xlink="http://www.w3.org/1999/xlink" x="0px" y="0px"
	 viewBox="0 0 39.3 29.8" enable-background="new 0 0 39.3 29.8" xml:space="preserve">
<g>
	<path fill="#FFFFFF" d="M30.2,17.1c0.2,0.6,0.7,0.9,1.3,0.9h6.3c0.8,0,1.4-0.6,1.4-1.4c0-0.8-0.6-1.4-1.4-1.4h-5.3l-2.8-7.6
		C29.5,7,29,6.6,28.4,6.6c-0.6,0-1.1,0.3-1.3,0.9l-2.6,6L21.2,1.1C21,0.4,20.4,0,19.7,0c-0.7,0-1.2,0.5-1.3,1.2l-4,20.6l-2.8-11.1
		c-0.2-0.6-0.7-1-1.3-1.1c-0.6,0-1.2,0.3-1.4,0.9l-2,5.5H1.4C0.6,16,0,16.6,0,17.4c0,0.8,0.6,1.4,1.4,1.4h6.4c0.6,0,1.1-0.4,1.3-0.9
		l0.8-2.1l3.3,12.9c0.2,0.6,0.7,1.1,1.4,1.1c0,0,0,0,0,0c0.7,0,1.2-0.5,1.4-1.2l4-20.8l2.8,10.4c0.2,0.6,0.7,1,1.3,1.1
		c0.6,0,1.2-0.3,1.4-0.9l2.8-6.5L30.2,17.1z M30.2,17.1"/>
</g>
</svg>
