<?xml version="1.0" encoding="utf-8"?>
<!-- Generator: Adobe Illustrator 18.1.1, SVG Export Plug-In . SVG Version: 6.00 Build 0)  -->
<svg version="1.1" id="Layer_1" xmlns="http://www.w3.org/2000/svg" xmlns:xlink="http://www.w3.org/1999/xlink" x="0px" y="0px"
	 viewBox="0 0 24.2 26.7" enable-background="new 0 0 24.2 26.7" xml:space="preserve">
<g>
	<path fill="#FFFFFF" d="M19.2,4.9c-0.5-0.4-1.2-0.2-1.6,0.3c-0.4,0.5-0.2,1.2,0.3,1.5c3.9,2.8,5.2,8.1,3,12.4
		c-1.2,2.4-3.2,4.1-5.7,4.9c-2.5,0.8-5.2,0.6-7.5-0.5c-2.4-1.2-4.1-3.2-4.9-5.7c-0.8-2.5-0.6-5.2,0.5-7.5c1.4-2.9,4.2-4.9,7.4-5.3
		c0,0,0,0,0.1,0l0,2.2c0,0.2,0.2,0.5,0.4,0.5c0.2,0.1,0.5,0,0.7-0.1l3.2-3.3c0.2-0.2,0.2-0.6,0-0.8l-3.3-3.2C11.4,0,11.2,0,11,0.1
		c-0.1,0-0.1,0.1-0.2,0.1c-0.1,0.1-0.2,0.3-0.2,0.4l0,2.1c-0.1,0-0.2,0-0.3,0c-3.9,0.6-7.3,3-9,6.5c-3,6-0.6,13.2,5.4,16.2
		c1.7,0.9,3.6,1.3,5.4,1.3c4.4,0,8.7-2.4,10.8-6.7C25.6,14.7,24,8.3,19.2,4.9L19.2,4.9z M19.2,4.9"/>
</g>
</svg>
