<?xml version="1.0" encoding="utf-8"?>
<!-- Generator: Adobe Illustrator 18.1.1, SVG Export Plug-In . SVG Version: 6.00 Build 0)  -->
<svg version="1.1" id="Layer_1" xmlns="http://www.w3.org/2000/svg" xmlns:xlink="http://www.w3.org/1999/xlink" x="0px" y="0px"
	 viewBox="0 0 22.8 22.3" enable-background="new 0 0 22.8 22.3" xml:space="preserve">
<g>
	<path fill="#FFFFFF" d="M22.8,19.3c0,1.6-1.3,2.9-2.9,2.9H10c-1.6,0-2.9-1.3-2.9-2.9V9.4c0-1.6,1.3-2.9,2.9-2.9h9.9
		c1.6,0,2.9,1.3,2.9,2.9V19.3z"/>
	<path fill="#FFFFFF" d="M3.9,8.3H1.1C0.5,8.3,0,7.9,0,7.3c0-0.6,0.5-1.1,1.1-1.1h2.9C4.5,6.2,5,6.7,5,7.3C5,7.9,4.5,8.3,3.9,8.3"/>
	<path fill="#FFFFFF" d="M3.9,22.3H1.1c-0.6,0-1.1-0.5-1.1-1.1c0-0.6,0.5-1.1,1.1-1.1h2.9c0.6,0,1.1,0.5,1.1,1.1
		C5,21.8,4.5,22.3,3.9,22.3"/>
	<rect x="1.4" y="7.4" fill="#FFFFFF" width="2.1" height="13.6"/>
	<path fill="#FFFFFF" d="M20.7,3.9V1.1c0-0.6,0.5-1.1,1.1-1.1s1.1,0.5,1.1,1.1v2.9c0,0.6-0.5,1.1-1.1,1.1S20.7,4.5,20.7,3.9"/>
	<path fill="#FFFFFF" d="M6.7,3.9V1.1C6.7,0.5,7.2,0,7.8,0c0.6,0,1.1,0.5,1.1,1.1v2.9C8.8,4.5,8.4,5,7.8,5C7.2,5,6.7,4.5,6.7,3.9"/>
	<rect x="8" y="1.4" fill="#FFFFFF" width="13.6" height="2.1"/>
</g>
</svg>
