<?xml version="1.0" encoding="utf-8"?>
<!-- Generator: Adobe Illustrator 18.1.1, SVG Export Plug-In . SVG Version: 6.00 Build 0)  -->
<svg version="1.1" id="Layer_1" xmlns="http://www.w3.org/2000/svg" xmlns:xlink="http://www.w3.org/1999/xlink" x="0px" y="0px"
	 viewBox="0 0 69.8 69.8" enable-background="new 0 0 69.8 69.8" xml:space="preserve">
<g>
	<defs>
		<path id="SVGID_1_" d="M3,0C1.4,0,0,1.3,0,3v63.8c0,1.7,1.4,3,3,3h63.8c1.7,0,3-1.3,3-3V3c0-1.7-1.3-3-3-3H3z"/>
	</defs>
	<clipPath id="SVGID_2_">
		<use xlink:href="#SVGID_1_"  overflow="visible"/>
	</clipPath>
	
		<linearGradient id="SVGID_3_" gradientUnits="userSpaceOnUse" x1="-299.3361" y1="894.0644" x2="-298.3361" y2="894.0644" gradientTransform="matrix(72.2185 0 0 -72.2185 21616.3672 64602.8633)">
		<stop  offset="0" style="stop-color:#4A4A4C"/>
		<stop  offset="0.1411" style="stop-color:#4E4E4E"/>
		<stop  offset="0.1793" style="stop-color:#585757"/>
		<stop  offset="0.2506" style="stop-color:#757271"/>
		<stop  offset="0.3465" style="stop-color:#ACA9A9"/>
		<stop  offset="0.4388" style="stop-color:#FFFFFF"/>
		<stop  offset="0.4876" style="stop-color:#EFEEEE"/>
		<stop  offset="0.5772" style="stop-color:#CFCFCF"/>
		<stop  offset="0.5809" style="stop-color:#CECECD"/>
		<stop  offset="0.5866" style="stop-color:#C1C0C0"/>
		<stop  offset="0.6075" style="stop-color:#A1A0A0"/>
		<stop  offset="0.6308" style="stop-color:#8A8889"/>
		<stop  offset="0.6571" style="stop-color:#7A7878"/>
		<stop  offset="0.6882" style="stop-color:#6F6E6E"/>
		<stop  offset="0.7287" style="stop-color:#696869"/>
		<stop  offset="0.8129" style="stop-color:#676767"/>
		<stop  offset="0.8458" style="stop-color:#656565"/>
		<stop  offset="0.8776" style="stop-color:#5F5F5F"/>
		<stop  offset="0.9091" style="stop-color:#555454"/>
		<stop  offset="0.9403" style="stop-color:#484646"/>
		<stop  offset="0.971" style="stop-color:#373435"/>
		<stop  offset="1" style="stop-color:#231F20"/>
	</linearGradient>
	<rect x="0" y="0" clip-path="url(#SVGID_2_)" fill="url(#SVGID_3_)" width="69.8" height="69.8"/>
</g>
<g opacity="0.3">
	<g>
		<defs>
			<rect id="SVGID_4_" x="0" y="0" width="69.8" height="69.8"/>
		</defs>
		<clipPath id="SVGID_5_">
			<use xlink:href="#SVGID_4_"  overflow="visible"/>
		</clipPath>
		<path clip-path="url(#SVGID_5_)" fill="#FFFFFF" d="M69.8,66.8c0,1.6-1.4,3-3,3H3c-1.6,0-3-1.4-3-3V3c0-1.7,1.4-3,3-3h63.8
			c1.6,0,3,1.3,3,3V66.8z"/>
	</g>
</g>
<path fill="#FFFFFF" d="M66.7,65.7c0,0.5-0.4,1-1,1H4c-0.6,0-1-0.5-1-1V4c0-0.5,0.4-1,1-1h61.7c0.6,0,1,0.5,1,1V65.7z"/>
</svg>
