<?xml version="1.0" encoding="utf-8"?>
<!-- Generator: Adobe Illustrator 18.1.1, SVG Export Plug-In . SVG Version: 6.00 Build 0)  -->
<svg version="1.1" id="Layer_1" xmlns="http://www.w3.org/2000/svg" xmlns:xlink="http://www.w3.org/1999/xlink" x="0px" y="0px"
	 viewBox="0 0 37 25.5" enable-background="new 0 0 37 25.5" xml:space="preserve">
<g>
	<path fill="#FFFFFF" d="M36.5,11.5l-11-11c-0.7-0.7-1.8-0.7-2.4,0c-0.7,0.7-0.7,1.8,0,2.4l8.1,8.1H1.7c-1,0-1.7,0.8-1.7,1.7
		c0,1,0.8,1.7,1.7,1.7h29.4l-8.1,8.1c-0.7,0.7-0.7,1.8,0,2.4c0.3,0.3,0.8,0.5,1.2,0.5c0.4,0,0.9-0.2,1.2-0.5l11-11
		C37.2,13.3,37.2,12.2,36.5,11.5z"/>
</g>
</svg>
